<svg width="249" height="249" viewBox="0 0 249 249" fill="none" xmlns="http://www.w3.org/2000/svg">
<path d="M129 1.96701e-07L120 0L120 9L129 9L129 1.96701e-07Z" fill="#C41A2C"/>
<path d="M119 10L110 10L110 19L119 19L119 10Z" fill="#C41A2C"/>
<path d="M139 10L130 10L130 19L139 19L139 10Z" fill="#C41A2C"/>
<path d="M109 20L100 20L100 29L109 29L109 20Z" fill="#C41A2C"/>
<path d="M19 120L10 120L10 129L19 129L19 120Z" fill="#C41A2C"/>
<path d="M149 20L140 20L140 29L149 29L149 20Z" fill="#C41A2C"/>
<path d="M99 30L90 30L90 39L99 39L99 30Z" fill="#C41A2C"/>
<path d="M119 20L110 20L110 29L119 29L119 20Z" fill="#C41A2C"/>
<path d="M29 130L20 130L20 139L29 139L29 130Z" fill="#C41A2C"/>
<path d="M159 30L150 30L150 39L159 39L159 30Z" fill="#C41A2C"/>
<path d="M89 40L80 40L80 49L89 49L89 40Z" fill="#C41A2C"/>
<path d="M109 30L100 30L100 39L109 39L109 30Z" fill="#C41A2C"/>
<path d="M39 140L30 140L30 149L39 149L39 140Z" fill="#C41A2C"/>
<path d="M169 40L160 40L160 49L169 49L169 40Z" fill="#C41A2C"/>
<path d="M79 50L70 50L70 59L79 59L79 50Z" fill="#C41A2C"/>
<path d="M99 40L90 40L90 49L99 49L99 40Z" fill="#C41A2C"/>
<path d="M49 150L40 150L40 159L49 159L49 150Z" fill="#C41A2C"/>
<path d="M179 50L170 50L170 59L179 59L179 50Z" fill="#C41A2C"/>
<path d="M69 60L60 60L60 69L69 69L69 60Z" fill="#C41A2C"/>
<path d="M89 50L80 50L80 59L89 59L89 50Z" fill="#C41A2C"/>
<path d="M119 60L110 60L110 69L119 69L119 60Z" fill="#C41A2C"/>
<path d="M139 60L130 60L130 69L139 69L139 60Z" fill="#C41A2C"/>
<path d="M59 160L50 160L50 169L59 169L59 160Z" fill="#C41A2C"/>
<path d="M189 60L180 60L180 69L189 69L189 60Z" fill="#C41A2C"/>
<path d="M59 70L50 70L50 79L59 79L59 70Z" fill="#C41A2C"/>
<path d="M79 60L70 60L70 69L79 69L79 60Z" fill="#C41A2C"/>
<path d="M109 70L100 70L100 79L109 79L109 70Z" fill="#C41A2C"/>
<path d="M149 70L140 70L140 79L149 79L149 70Z" fill="#C41A2C"/>
<path d="M69 170L60 170L60 179L69 179L69 170Z" fill="#C41A2C"/>
<path d="M199 70L190 70L190 79L199 79L199 70Z" fill="#C41A2C"/>
<path d="M49 80L40 80L40 89L49 89L49 80Z" fill="#C41A2C"/>
<path d="M69 70L60 70L60 79L69 79L69 70Z" fill="#C41A2C"/>
<path d="M99 80L90 80L90 89L99 89L99 80Z" fill="#C41A2C"/>
<path d="M159 80L150 80L150 89L159 89L159 80Z" fill="#C41A2C"/>
<path d="M79 180L70 180L70 189L79 189L79 180Z" fill="#C41A2C"/>
<path d="M79 190L70 190L70 199L79 199L79 190Z" fill="#C41A2C"/>
<path d="M89 200L80 200L80 209L89 209L89 200Z" fill="#C41A2C"/>
<path d="M99 210L90 210L90 219L99 219L99 210Z" fill="#C41A2C"/>
<path d="M109 220L100 220L100 229L109 229L109 220Z" fill="#C41A2C"/>
<path d="M209 80L200 80L200 89L209 89L209 80Z" fill="#C41A2C"/>
<path d="M39 90L30 90L30 99L39 99L39 90Z" fill="#C41A2C"/>
<path d="M59 80L50 80L50 89L59 89L59 80Z" fill="#C41A2C"/>
<path d="M89 90L80 90L80 99L89 99L89 90Z" fill="#C41A2C"/>
<path d="M169 90L160 90L160 99L169 99L169 90Z" fill="#C41A2C"/>
<path d="M89 190L80 190L80 199L89 199L89 190Z" fill="#C41A2C"/>
<path d="M219 90L210 90L210 99L219 99L219 90Z" fill="#C41A2C"/>
<path d="M29 100L20 100L20 109L29 109L29 100Z" fill="#C41A2C"/>
<path d="M49 90L40 90L40 99L49 99L49 90Z" fill="#C41A2C"/>
<path d="M79 100L70 100L70 109L79 109L79 100Z" fill="#C41A2C"/>
<path d="M129 100L120 100L120 109L129 109L129 100Z" fill="#C41A2C"/>
<path d="M179 100L170 100L170 109L179 109L179 100Z" fill="#C41A2C"/>
<path d="M99 200L90 200L90 209L99 209L99 200Z" fill="#C41A2C"/>
<path d="M229 100L220 100L220 109L229 109L229 100Z" fill="#C41A2C"/>
<path d="M19 110L10 110L10 119L19 119L19 110Z" fill="#C41A2C"/>
<path d="M39 100L30 100L30 109L39 109L39 100Z" fill="#C41A2C"/>
<path d="M69 110L60 110L60 119L69 119L69 110Z" fill="#C41A2C"/>
<path d="M89 120L80 120L80 129L89 129L89 120Z" fill="#C41A2C"/>
<path d="M129 80L120 80L120 89L129 89L129 80Z" fill="#C41A2C"/>
<path d="M189 110L180 110L180 119L189 119L189 110Z" fill="#C41A2C"/>
<path d="M109 210L100 210L100 219L109 219L109 210Z" fill="#C41A2C"/>
<path d="M239 110L230 110L230 119L239 119L239 110Z" fill="#C41A2C"/>
<path d="M129 10L120 10L120 19L129 19L129 10Z" fill="#C41A2C"/>
<path d="M139 20L130 20L130 29L139 29L139 20Z" fill="#C41A2C"/>
<path d="M149 30L140 30L140 39L149 39L149 30Z" fill="#C41A2C"/>
<path d="M159 40L150 40L150 49L159 49L159 40Z" fill="#C41A2C"/>
<path d="M169 50L160 50L160 59L169 59L169 50Z" fill="#C41A2C"/>
<path d="M179 60L170 60L170 69L179 69L179 60Z" fill="#C41A2C"/>
<path d="M189 70L180 70L180 79L189 79L189 70Z" fill="#C41A2C"/>
<path d="M199 80L190 80L190 89L199 89L199 80Z" fill="#C41A2C"/>
<path d="M209 90L200 90L200 99L209 99L209 90Z" fill="#C41A2C"/>
<path d="M219 100L210 100L210 109L219 109L219 100Z" fill="#C41A2C"/>
<path d="M229 110L220 110L220 119L229 119L229 110Z" fill="#C41A2C"/>
<path d="M239 120L230 120L230 129L239 129L239 120Z" fill="#C41A2C"/>
<path d="M9 120L0 120L-1.96701e-07 129L9 129L9 120Z" fill="#C41A2C"/>
<path d="M29 110L20 110L20 119L29 119L29 110Z" fill="#C41A2C"/>
<path d="M109 120L100 120L100 129L109 129L109 120Z" fill="#C41A2C"/>
<path d="M149 120L140 120L140 129L149 129L149 120Z" fill="#C41A2C"/>
<path d="M189 140L180 140L180 149L189 149L189 140Z" fill="#C41A2C"/>
<path d="M169 160L160 160L160 169L169 169L169 160Z" fill="#C41A2C"/>
<path d="M149 180L140 180L140 189L149 189L149 180Z" fill="#C41A2C"/>
<path d="M169 80L160 80L160 89L169 89L169 80Z" fill="#C41A2C"/>
<path d="M149 60L140 60L140 69L149 69L149 60Z" fill="#C41A2C"/>
<path d="M189 100L180 100L180 109L189 109L189 100Z" fill="#C41A2C"/>
<path d="M89 80L80 80L80 89L89 89L89 80Z" fill="#C41A2C"/>
<path d="M69 100L60 100L60 109L69 109L69 100Z" fill="#C41A2C"/>
<path d="M109 60L100 60L100 69L109 69L109 60Z" fill="#C41A2C"/>
<path d="M89 160L80 160L80 169L89 169L89 160Z" fill="#C41A2C"/>
<path d="M109 180L100 180L100 189L109 189L109 180Z" fill="#C41A2C"/>
<path d="M99 200L90 200L90 209L99 209L99 200Z" fill="#C41A2C"/>
<path d="M189 130L180 130L180 139L189 139L189 130Z" fill="#C41A2C"/>
<path d="M119 220L110 220L110 229L119 229L119 220Z" fill="#C41A2C"/>
<path d="M249 120L240 120L240 129L249 129L249 120Z" fill="#C41A2C"/>
<path d="M19 130L10 130L10 139L19 139L19 130Z" fill="#C41A2C"/>
<path d="M69 130L60 130L60 139L69 139L69 130Z" fill="#C41A2C"/>
<path d="M189 130L180 130L180 139L189 139L189 130Z" fill="#C41A2C"/>
<path d="M229 130L220 130L220 139L229 139L229 130Z" fill="#C41A2C"/>
<path d="M239 130L230 130L230 139L239 139L239 130Z" fill="#C41A2C"/>
<path d="M29 140L20 140L20 149L29 149L29 140Z" fill="#C41A2C"/>
<path d="M79 140L70 140L70 149L79 149L79 140Z" fill="#C41A2C"/>
<path d="M129 140L120 140L120 149L129 149L129 140Z" fill="#C41A2C"/>
<path d="M129 120L120 120L120 129L129 129L129 120Z" fill="#C41A2C"/>
<path d="M179 140L170 140L170 149L179 149L179 140Z" fill="#C41A2C"/>
<path d="M219 140L210 140L210 149L219 149L219 140Z" fill="#C41A2C"/>
<path d="M229 140L220 140L220 149L229 149L229 140Z" fill="#C41A2C"/>
<path d="M39 150L30 150L30 159L39 159L39 150Z" fill="#C41A2C"/>
<path d="M89 150L80 150L80 159L89 159L89 150Z" fill="#C41A2C"/>
<path d="M169 150L160 150L160 159L169 159L169 150Z" fill="#C41A2C"/>
<path d="M209 150L200 150L200 159L209 159L209 150Z" fill="#C41A2C"/>
<path d="M219 150L210 150L210 159L219 159L219 150Z" fill="#C41A2C"/>
<path d="M49 160L40 160L40 169L49 169L49 160Z" fill="#C41A2C"/>
<path d="M99 160L90 160L90 169L99 169L99 160Z" fill="#C41A2C"/>
<path d="M69 140L60 140L60 149L69 149L69 140Z" fill="#C41A2C"/>
<path d="M159 160L150 160L150 169L159 169L159 160Z" fill="#C41A2C"/>
<path d="M199 160L190 160L190 169L199 169L199 160Z" fill="#C41A2C"/>
<path d="M209 160L200 160L200 169L209 169L209 160Z" fill="#C41A2C"/>
<path d="M59 170L50 170L50 179L59 179L59 170Z" fill="#C41A2C"/>
<path d="M109 170L100 170L100 179L109 179L109 170Z" fill="#C41A2C"/>
<path d="M149 170L140 170L140 179L149 179L149 170Z" fill="#C41A2C"/>
<path d="M189 170L180 170L180 179L189 179L189 170Z" fill="#C41A2C"/>
<path d="M199 170L190 170L190 179L199 179L199 170Z" fill="#C41A2C"/>
<path d="M69 180L60 180L60 189L69 189L69 180Z" fill="#C41A2C"/>
<path d="M119 180L110 180L110 189L119 189L119 180Z" fill="#C41A2C"/>
<path d="M139 180L130 180L130 189L139 189L139 180Z" fill="#C41A2C"/>
<path d="M179 180L170 180L170 189L179 189L179 180Z" fill="#C41A2C"/>
<path d="M189 180L180 180L180 189L189 189L189 180Z" fill="#C41A2C"/>
<path d="M169 190L160 190L160 199L169 199L169 190Z" fill="#C41A2C"/>
<path d="M179 190L170 190L170 199L179 199L179 190Z" fill="#C41A2C"/>
<path d="M159 200L150 200L150 209L159 209L159 200Z" fill="#C41A2C"/>
<path d="M169 200L160 200L160 209L169 209L169 200Z" fill="#C41A2C"/>
<path d="M149 210L140 210L140 219L149 219L149 210Z" fill="#C41A2C"/>
<path d="M139 220L130 220L130 229L139 229L139 220Z" fill="#C41A2C"/>
<path d="M129 230L120 230L120 239L129 239L129 230Z" fill="#C41A2C"/>
<path d="M159 210L150 210L150 219L159 219L159 210Z" fill="#C41A2C"/>
<path d="M109 220L100 220L100 229L109 229L109 220Z" fill="#C41A2C"/>
<path d="M149 220L140 220L140 229L149 229L149 220Z" fill="#C41A2C"/>
<path d="M119 230L110 230L110 239L119 239L119 230Z" fill="#C41A2C"/>
<path d="M139 230L130 230L130 239L139 239L139 230Z" fill="#C41A2C"/>
<path d="M129 240L120 240L120 249L129 249L129 240Z" fill="#C41A2C"/>
<path d="M109 100L100 100L100 109L109 109L109 100Z" fill="#C41A2C"/>
<path d="M109 141L100 141L100 150L109 150L109 141Z" fill="#C41A2C"/>
<path d="M129 160L120 160L120 169L129 169L129 160Z" fill="#C41A2C"/>
<path d="M149 139L140 139L140 148L149 148L149 139Z" fill="#C41A2C"/>
<path d="M169 120L160 120L160 129L169 129L169 120Z" fill="#C41A2C"/>
<path d="M149 100L140 100L140 109L149 109L149 100Z" fill="#C41A2C"/>
</svg>
