<?xml version="1.0" encoding="UTF-8"?>
<svg xmlns="http://www.w3.org/2000/svg" viewBox="0 0 370 370" width="370" height="370">
  <rect width="370" height="370" fill="#F5F0E8"/>
  <rect x="180" y="10" width="9" height="9" fill="#C41A2C"/>
  <rect x="170" y="20" width="9" height="9" fill="#C41A2C"/>
  <rect x="190" y="20" width="9" height="9" fill="#C41A2C"/>
  <rect x="160" y="30" width="9" height="9" fill="#C41A2C"/>
  <rect x="180" y="30" width="9" height="9" fill="#C41A2C"/>
  <rect x="200" y="30" width="9" height="9" fill="#C41A2C"/>
  <rect x="150" y="40" width="9" height="9" fill="#C41A2C"/>
  <rect x="170" y="40" width="9" height="9" fill="#C41A2C"/>
  <rect x="190" y="40" width="9" height="9" fill="#C41A2C"/>
  <rect x="210" y="40" width="9" height="9" fill="#C41A2C"/>
  <rect x="140" y="50" width="9" height="9" fill="#C41A2C"/>
  <rect x="160" y="50" width="9" height="9" fill="#C41A2C"/>
  <rect x="200" y="50" width="9" height="9" fill="#C41A2C"/>
  <rect x="220" y="50" width="9" height="9" fill="#C41A2C"/>
  <rect x="130" y="60" width="9" height="9" fill="#C41A2C"/>
  <rect x="150" y="60" width="9" height="9" fill="#C41A2C"/>
  <rect x="180" y="60" width="9" height="9" fill="#C41A2C"/>
  <rect x="210" y="60" width="9" height="9" fill="#C41A2C"/>
  <rect x="230" y="60" width="9" height="9" fill="#C41A2C"/>
  <rect x="120" y="70" width="9" height="9" fill="#C41A2C"/>
  <rect x="140" y="70" width="9" height="9" fill="#C41A2C"/>
  <rect x="170" y="70" width="9" height="9" fill="#C41A2C"/>
  <rect x="190" y="70" width="9" height="9" fill="#C41A2C"/>
  <rect x="220" y="70" width="9" height="9" fill="#C41A2C"/>
  <rect x="240" y="70" width="9" height="9" fill="#C41A2C"/>
  <rect x="110" y="80" width="9" height="9" fill="#C41A2C"/>
  <rect x="130" y="80" width="9" height="9" fill="#C41A2C"/>
  <rect x="160" y="80" width="9" height="9" fill="#C41A2C"/>
  <rect x="180" y="80" width="9" height="9" fill="#C41A2C"/>
  <rect x="200" y="80" width="9" height="9" fill="#C41A2C"/>
  <rect x="230" y="80" width="9" height="9" fill="#C41A2C"/>
  <rect x="250" y="80" width="9" height="9" fill="#C41A2C"/>
  <rect x="100" y="90" width="9" height="9" fill="#C41A2C"/>
  <rect x="120" y="90" width="9" height="9" fill="#C41A2C"/>
  <rect x="150" y="90" width="9" height="9" fill="#C41A2C"/>
  <rect x="170" y="90" width="9" height="9" fill="#C41A2C"/>
  <rect x="190" y="90" width="9" height="9" fill="#C41A2C"/>
  <rect x="210" y="90" width="9" height="9" fill="#C41A2C"/>
  <rect x="240" y="90" width="9" height="9" fill="#C41A2C"/>
  <rect x="260" y="90" width="9" height="9" fill="#C41A2C"/>
  <rect x="90" y="100" width="9" height="9" fill="#C41A2C"/>
  <rect x="110" y="100" width="9" height="9" fill="#C41A2C"/>
  <rect x="140" y="100" width="9" height="9" fill="#C41A2C"/>
  <rect x="160" y="100" width="9" height="9" fill="#C41A2C"/>
  <rect x="200" y="100" width="9" height="9" fill="#C41A2C"/>
  <rect x="220" y="100" width="9" height="9" fill="#C41A2C"/>
  <rect x="250" y="100" width="9" height="9" fill="#C41A2C"/>
  <rect x="270" y="100" width="9" height="9" fill="#C41A2C"/>
  <rect x="80" y="110" width="9" height="9" fill="#C41A2C"/>
  <rect x="100" y="110" width="9" height="9" fill="#C41A2C"/>
  <rect x="110" y="110" width="9" height="9" fill="#C41A2C"/>
  <rect x="130" y="110" width="9" height="9" fill="#C41A2C"/>
  <rect x="150" y="110" width="9" height="9" fill="#C41A2C"/>
  <rect x="180" y="110" width="9" height="9" fill="#C41A2C"/>
  <rect x="210" y="110" width="9" height="9" fill="#C41A2C"/>
  <rect x="230" y="110" width="9" height="9" fill="#C41A2C"/>
  <rect x="250" y="110" width="9" height="9" fill="#C41A2C"/>
  <rect x="260" y="110" width="9" height="9" fill="#C41A2C"/>
  <rect x="280" y="110" width="9" height="9" fill="#C41A2C"/>
  <rect x="70" y="120" width="9" height="9" fill="#C41A2C"/>
  <rect x="90" y="120" width="9" height="9" fill="#C41A2C"/>
  <rect x="120" y="120" width="9" height="9" fill="#C41A2C"/>
  <rect x="140" y="120" width="9" height="9" fill="#C41A2C"/>
  <rect x="170" y="120" width="9" height="9" fill="#C41A2C"/>
  <rect x="190" y="120" width="9" height="9" fill="#C41A2C"/>
  <rect x="220" y="120" width="9" height="9" fill="#C41A2C"/>
  <rect x="240" y="120" width="9" height="9" fill="#C41A2C"/>
  <rect x="270" y="120" width="9" height="9" fill="#C41A2C"/>
  <rect x="290" y="120" width="9" height="9" fill="#C41A2C"/>
  <rect x="60" y="130" width="9" height="9" fill="#C41A2C"/>
  <rect x="80" y="130" width="9" height="9" fill="#C41A2C"/>
  <rect x="110" y="130" width="9" height="9" fill="#C41A2C"/>
  <rect x="130" y="130" width="9" height="9" fill="#C41A2C"/>
  <rect x="160" y="130" width="9" height="9" fill="#C41A2C"/>
  <rect x="180" y="130" width="9" height="9" fill="#C41A2C"/>
  <rect x="200" y="130" width="9" height="9" fill="#C41A2C"/>
  <rect x="230" y="130" width="9" height="9" fill="#C41A2C"/>
  <rect x="250" y="130" width="9" height="9" fill="#C41A2C"/>
  <rect x="280" y="130" width="9" height="9" fill="#C41A2C"/>
  <rect x="300" y="130" width="9" height="9" fill="#C41A2C"/>
  <rect x="50" y="140" width="9" height="9" fill="#C41A2C"/>
  <rect x="70" y="140" width="9" height="9" fill="#C41A2C"/>
  <rect x="100" y="140" width="9" height="9" fill="#C41A2C"/>
  <rect x="120" y="140" width="9" height="9" fill="#C41A2C"/>
  <rect x="150" y="140" width="9" height="9" fill="#C41A2C"/>
  <rect x="170" y="140" width="9" height="9" fill="#C41A2C"/>
  <rect x="190" y="140" width="9" height="9" fill="#C41A2C"/>
  <rect x="210" y="140" width="9" height="9" fill="#C41A2C"/>
  <rect x="240" y="140" width="9" height="9" fill="#C41A2C"/>
  <rect x="260" y="140" width="9" height="9" fill="#C41A2C"/>
  <rect x="290" y="140" width="9" height="9" fill="#C41A2C"/>
  <rect x="310" y="140" width="9" height="9" fill="#C41A2C"/>
  <rect x="40" y="150" width="9" height="9" fill="#C41A2C"/>
  <rect x="60" y="150" width="9" height="9" fill="#C41A2C"/>
  <rect x="90" y="150" width="9" height="9" fill="#C41A2C"/>
  <rect x="110" y="150" width="9" height="9" fill="#C41A2C"/>
  <rect x="140" y="150" width="9" height="9" fill="#C41A2C"/>
  <rect x="160" y="150" width="9" height="9" fill="#C41A2C"/>
  <rect x="200" y="150" width="9" height="9" fill="#C41A2C"/>
  <rect x="220" y="150" width="9" height="9" fill="#C41A2C"/>
  <rect x="250" y="150" width="9" height="9" fill="#C41A2C"/>
  <rect x="270" y="150" width="9" height="9" fill="#C41A2C"/>
  <rect x="300" y="150" width="9" height="9" fill="#C41A2C"/>
  <rect x="320" y="150" width="9" height="9" fill="#C41A2C"/>
  <rect x="30" y="160" width="9" height="9" fill="#C41A2C"/>
  <rect x="50" y="160" width="9" height="9" fill="#C41A2C"/>
  <rect x="80" y="160" width="9" height="9" fill="#C41A2C"/>
  <rect x="100" y="160" width="9" height="9" fill="#C41A2C"/>
  <rect x="130" y="160" width="9" height="9" fill="#C41A2C"/>
  <rect x="150" y="160" width="9" height="9" fill="#C41A2C"/>
  <rect x="180" y="160" width="9" height="9" fill="#C41A2C"/>
  <rect x="210" y="160" width="9" height="9" fill="#C41A2C"/>
  <rect x="230" y="160" width="9" height="9" fill="#C41A2C"/>
  <rect x="260" y="160" width="9" height="9" fill="#C41A2C"/>
  <rect x="280" y="160" width="9" height="9" fill="#C41A2C"/>
  <rect x="310" y="160" width="9" height="9" fill="#C41A2C"/>
  <rect x="330" y="160" width="9" height="9" fill="#C41A2C"/>
  <rect x="20" y="170" width="9" height="9" fill="#C41A2C"/>
  <rect x="40" y="170" width="9" height="9" fill="#C41A2C"/>
  <rect x="70" y="170" width="9" height="9" fill="#C41A2C"/>
  <rect x="90" y="170" width="9" height="9" fill="#C41A2C"/>
  <rect x="120" y="170" width="9" height="9" fill="#C41A2C"/>
  <rect x="140" y="170" width="9" height="9" fill="#C41A2C"/>
  <rect x="170" y="170" width="9" height="9" fill="#C41A2C"/>
  <rect x="180" y="170" width="9" height="9" fill="#C41A2C"/>
  <rect x="190" y="170" width="9" height="9" fill="#C41A2C"/>
  <rect x="220" y="170" width="9" height="9" fill="#C41A2C"/>
  <rect x="240" y="170" width="9" height="9" fill="#C41A2C"/>
  <rect x="270" y="170" width="9" height="9" fill="#C41A2C"/>
  <rect x="290" y="170" width="9" height="9" fill="#C41A2C"/>
  <rect x="320" y="170" width="9" height="9" fill="#C41A2C"/>
  <rect x="340" y="170" width="9" height="9" fill="#C41A2C"/>
  <rect x="10" y="180" width="9" height="9" fill="#C41A2C"/>
  <rect x="30" y="180" width="9" height="9" fill="#C41A2C"/>
  <rect x="60" y="180" width="9" height="9" fill="#C41A2C"/>
  <rect x="80" y="180" width="9" height="9" fill="#C41A2C"/>
  <rect x="110" y="180" width="9" height="9" fill="#C41A2C"/>
  <rect x="130" y="180" width="9" height="9" fill="#C41A2C"/>
  <rect x="160" y="180" width="9" height="9" fill="#C41A2C"/>
  <rect x="170" y="180" width="9" height="9" fill="#C41A2C"/>
  <rect x="180" y="180" width="9" height="9" fill="#C41A2C"/>
  <rect x="190" y="180" width="9" height="9" fill="#C41A2C"/>
  <rect x="200" y="180" width="9" height="9" fill="#C41A2C"/>
  <rect x="230" y="180" width="9" height="9" fill="#C41A2C"/>
  <rect x="250" y="180" width="9" height="9" fill="#C41A2C"/>
  <rect x="280" y="180" width="9" height="9" fill="#C41A2C"/>
  <rect x="300" y="180" width="9" height="9" fill="#C41A2C"/>
  <rect x="330" y="180" width="9" height="9" fill="#C41A2C"/>
  <rect x="350" y="180" width="9" height="9" fill="#C41A2C"/>
  <rect x="20" y="190" width="9" height="9" fill="#C41A2C"/>
  <rect x="40" y="190" width="9" height="9" fill="#C41A2C"/>
  <rect x="70" y="190" width="9" height="9" fill="#C41A2C"/>
  <rect x="90" y="190" width="9" height="9" fill="#C41A2C"/>
  <rect x="120" y="190" width="9" height="9" fill="#C41A2C"/>
  <rect x="140" y="190" width="9" height="9" fill="#C41A2C"/>
  <rect x="170" y="190" width="9" height="9" fill="#C41A2C"/>
  <rect x="180" y="190" width="9" height="9" fill="#C41A2C"/>
  <rect x="190" y="190" width="9" height="9" fill="#C41A2C"/>
  <rect x="220" y="190" width="9" height="9" fill="#C41A2C"/>
  <rect x="240" y="190" width="9" height="9" fill="#C41A2C"/>
  <rect x="270" y="190" width="9" height="9" fill="#C41A2C"/>
  <rect x="290" y="190" width="9" height="9" fill="#C41A2C"/>
  <rect x="320" y="190" width="9" height="9" fill="#C41A2C"/>
  <rect x="340" y="190" width="9" height="9" fill="#C41A2C"/>
  <rect x="30" y="200" width="9" height="9" fill="#C41A2C"/>
  <rect x="50" y="200" width="9" height="9" fill="#C41A2C"/>
  <rect x="80" y="200" width="9" height="9" fill="#C41A2C"/>
  <rect x="100" y="200" width="9" height="9" fill="#C41A2C"/>
  <rect x="130" y="200" width="9" height="9" fill="#C41A2C"/>
  <rect x="150" y="200" width="9" height="9" fill="#C41A2C"/>
  <rect x="180" y="200" width="9" height="9" fill="#C41A2C"/>
  <rect x="210" y="200" width="9" height="9" fill="#C41A2C"/>
  <rect x="230" y="200" width="9" height="9" fill="#C41A2C"/>
  <rect x="260" y="200" width="9" height="9" fill="#C41A2C"/>
  <rect x="280" y="200" width="9" height="9" fill="#C41A2C"/>
  <rect x="310" y="200" width="9" height="9" fill="#C41A2C"/>
  <rect x="330" y="200" width="9" height="9" fill="#C41A2C"/>
  <rect x="40" y="210" width="9" height="9" fill="#C41A2C"/>
  <rect x="60" y="210" width="9" height="9" fill="#C41A2C"/>
  <rect x="90" y="210" width="9" height="9" fill="#C41A2C"/>
  <rect x="110" y="210" width="9" height="9" fill="#C41A2C"/>
  <rect x="140" y="210" width="9" height="9" fill="#C41A2C"/>
  <rect x="160" y="210" width="9" height="9" fill="#C41A2C"/>
  <rect x="200" y="210" width="9" height="9" fill="#C41A2C"/>
  <rect x="220" y="210" width="9" height="9" fill="#C41A2C"/>
  <rect x="250" y="210" width="9" height="9" fill="#C41A2C"/>
  <rect x="270" y="210" width="9" height="9" fill="#C41A2C"/>
  <rect x="300" y="210" width="9" height="9" fill="#C41A2C"/>
  <rect x="320" y="210" width="9" height="9" fill="#C41A2C"/>
  <rect x="50" y="220" width="9" height="9" fill="#C41A2C"/>
  <rect x="70" y="220" width="9" height="9" fill="#C41A2C"/>
  <rect x="100" y="220" width="9" height="9" fill="#C41A2C"/>
  <rect x="120" y="220" width="9" height="9" fill="#C41A2C"/>
  <rect x="150" y="220" width="9" height="9" fill="#C41A2C"/>
  <rect x="170" y="220" width="9" height="9" fill="#C41A2C"/>
  <rect x="190" y="220" width="9" height="9" fill="#C41A2C"/>
  <rect x="210" y="220" width="9" height="9" fill="#C41A2C"/>
  <rect x="240" y="220" width="9" height="9" fill="#C41A2C"/>
  <rect x="260" y="220" width="9" height="9" fill="#C41A2C"/>
  <rect x="290" y="220" width="9" height="9" fill="#C41A2C"/>
  <rect x="310" y="220" width="9" height="9" fill="#C41A2C"/>
  <rect x="60" y="230" width="9" height="9" fill="#C41A2C"/>
  <rect x="80" y="230" width="9" height="9" fill="#C41A2C"/>
  <rect x="110" y="230" width="9" height="9" fill="#C41A2C"/>
  <rect x="130" y="230" width="9" height="9" fill="#C41A2C"/>
  <rect x="160" y="230" width="9" height="9" fill="#C41A2C"/>
  <rect x="180" y="230" width="9" height="9" fill="#C41A2C"/>
  <rect x="200" y="230" width="9" height="9" fill="#C41A2C"/>
  <rect x="230" y="230" width="9" height="9" fill="#C41A2C"/>
  <rect x="250" y="230" width="9" height="9" fill="#C41A2C"/>
  <rect x="280" y="230" width="9" height="9" fill="#C41A2C"/>
  <rect x="300" y="230" width="9" height="9" fill="#C41A2C"/>
  <rect x="70" y="240" width="9" height="9" fill="#C41A2C"/>
  <rect x="90" y="240" width="9" height="9" fill="#C41A2C"/>
  <rect x="120" y="240" width="9" height="9" fill="#C41A2C"/>
  <rect x="140" y="240" width="9" height="9" fill="#C41A2C"/>
  <rect x="170" y="240" width="9" height="9" fill="#C41A2C"/>
  <rect x="190" y="240" width="9" height="9" fill="#C41A2C"/>
  <rect x="220" y="240" width="9" height="9" fill="#C41A2C"/>
  <rect x="240" y="240" width="9" height="9" fill="#C41A2C"/>
  <rect x="270" y="240" width="9" height="9" fill="#C41A2C"/>
  <rect x="290" y="240" width="9" height="9" fill="#C41A2C"/>
  <rect x="80" y="250" width="9" height="9" fill="#C41A2C"/>
  <rect x="100" y="250" width="9" height="9" fill="#C41A2C"/>
  <rect x="110" y="250" width="9" height="9" fill="#C41A2C"/>
  <rect x="130" y="250" width="9" height="9" fill="#C41A2C"/>
  <rect x="150" y="250" width="9" height="9" fill="#C41A2C"/>
  <rect x="180" y="250" width="9" height="9" fill="#C41A2C"/>
  <rect x="210" y="250" width="9" height="9" fill="#C41A2C"/>
  <rect x="230" y="250" width="9" height="9" fill="#C41A2C"/>
  <rect x="250" y="250" width="9" height="9" fill="#C41A2C"/>
  <rect x="260" y="250" width="9" height="9" fill="#C41A2C"/>
  <rect x="280" y="250" width="9" height="9" fill="#C41A2C"/>
  <rect x="90" y="260" width="9" height="9" fill="#C41A2C"/>
  <rect x="110" y="260" width="9" height="9" fill="#C41A2C"/>
  <rect x="140" y="260" width="9" height="9" fill="#C41A2C"/>
  <rect x="160" y="260" width="9" height="9" fill="#C41A2C"/>
  <rect x="200" y="260" width="9" height="9" fill="#C41A2C"/>
  <rect x="220" y="260" width="9" height="9" fill="#C41A2C"/>
  <rect x="250" y="260" width="9" height="9" fill="#C41A2C"/>
  <rect x="270" y="260" width="9" height="9" fill="#C41A2C"/>
  <rect x="100" y="270" width="9" height="9" fill="#C41A2C"/>
  <rect x="120" y="270" width="9" height="9" fill="#C41A2C"/>
  <rect x="150" y="270" width="9" height="9" fill="#C41A2C"/>
  <rect x="170" y="270" width="9" height="9" fill="#C41A2C"/>
  <rect x="190" y="270" width="9" height="9" fill="#C41A2C"/>
  <rect x="210" y="270" width="9" height="9" fill="#C41A2C"/>
  <rect x="240" y="270" width="9" height="9" fill="#C41A2C"/>
  <rect x="260" y="270" width="9" height="9" fill="#C41A2C"/>
  <rect x="110" y="280" width="9" height="9" fill="#C41A2C"/>
  <rect x="130" y="280" width="9" height="9" fill="#C41A2C"/>
  <rect x="160" y="280" width="9" height="9" fill="#C41A2C"/>
  <rect x="180" y="280" width="9" height="9" fill="#C41A2C"/>
  <rect x="200" y="280" width="9" height="9" fill="#C41A2C"/>
  <rect x="230" y="280" width="9" height="9" fill="#C41A2C"/>
  <rect x="250" y="280" width="9" height="9" fill="#C41A2C"/>
  <rect x="120" y="290" width="9" height="9" fill="#C41A2C"/>
  <rect x="140" y="290" width="9" height="9" fill="#C41A2C"/>
  <rect x="170" y="290" width="9" height="9" fill="#C41A2C"/>
  <rect x="190" y="290" width="9" height="9" fill="#C41A2C"/>
  <rect x="220" y="290" width="9" height="9" fill="#C41A2C"/>
  <rect x="240" y="290" width="9" height="9" fill="#C41A2C"/>
  <rect x="130" y="300" width="9" height="9" fill="#C41A2C"/>
  <rect x="150" y="300" width="9" height="9" fill="#C41A2C"/>
  <rect x="180" y="300" width="9" height="9" fill="#C41A2C"/>
  <rect x="210" y="300" width="9" height="9" fill="#C41A2C"/>
  <rect x="230" y="300" width="9" height="9" fill="#C41A2C"/>
  <rect x="140" y="310" width="9" height="9" fill="#C41A2C"/>
  <rect x="160" y="310" width="9" height="9" fill="#C41A2C"/>
  <rect x="200" y="310" width="9" height="9" fill="#C41A2C"/>
  <rect x="220" y="310" width="9" height="9" fill="#C41A2C"/>
  <rect x="150" y="320" width="9" height="9" fill="#C41A2C"/>
  <rect x="170" y="320" width="9" height="9" fill="#C41A2C"/>
  <rect x="190" y="320" width="9" height="9" fill="#C41A2C"/>
  <rect x="210" y="320" width="9" height="9" fill="#C41A2C"/>
  <rect x="160" y="330" width="9" height="9" fill="#C41A2C"/>
  <rect x="180" y="330" width="9" height="9" fill="#C41A2C"/>
  <rect x="200" y="330" width="9" height="9" fill="#C41A2C"/>
  <rect x="170" y="340" width="9" height="9" fill="#C41A2C"/>
  <rect x="190" y="340" width="9" height="9" fill="#C41A2C"/>
  <rect x="180" y="350" width="9" height="9" fill="#C41A2C"/>
</svg>