<?xml version="1.0" encoding="UTF-8"?>
<svg xmlns="http://www.w3.org/2000/svg" viewBox="0 0 470 600" width="470" height="600">
  <rect width="470" height="600" fill="#F5F0E8"/>

  <!-- Concentric Diamonds Pattern -->
  <rect x="230" y="50" width="9" height="9" fill="#F5F0E8"/>
  <rect x="220" y="60" width="9" height="9" fill="#F5F0E8"/>
  <rect x="240" y="60" width="9" height="9" fill="#F5F0E8"/>
  <rect x="210" y="70" width="9" height="9" fill="#F5F0E8"/>
  <rect x="230" y="70" width="9" height="9" fill="#F5F0E8"/>
  <rect x="250" y="70" width="9" height="9" fill="#F5F0E8"/>
  <rect x="200" y="80" width="9" height="9" fill="#F5F0E8"/>
  <rect x="220" y="80" width="9" height="9" fill="#F5F0E8"/>
  <rect x="240" y="80" width="9" height="9" fill="#F5F0E8"/>
  <rect x="260" y="80" width="9" height="9" fill="#F5F0E8"/>
  <rect x="190" y="90" width="9" height="9" fill="#F5F0E8"/>
  <rect x="210" y="90" width="9" height="9" fill="#F5F0E8"/>
  <rect x="250" y="90" width="9" height="9" fill="#F5F0E8"/>
  <rect x="270" y="90" width="9" height="9" fill="#F5F0E8"/>
  <rect x="180" y="100" width="9" height="9" fill="#F5F0E8"/>
  <rect x="200" y="100" width="9" height="9" fill="#F5F0E8"/>
  <rect x="230" y="100" width="9" height="9" fill="#F5F0E8"/>
  <rect x="260" y="100" width="9" height="9" fill="#F5F0E8"/>
  <rect x="280" y="100" width="9" height="9" fill="#F5F0E8"/>
  <rect x="170" y="110" width="9" height="9" fill="#F5F0E8"/>
  <rect x="190" y="110" width="9" height="9" fill="#F5F0E8"/>
  <rect x="220" y="110" width="9" height="9" fill="#F5F0E8"/>
  <rect x="240" y="110" width="9" height="9" fill="#F5F0E8"/>
  <rect x="270" y="110" width="9" height="9" fill="#F5F0E8"/>
  <rect x="290" y="110" width="9" height="9" fill="#F5F0E8"/>
  <rect x="160" y="120" width="9" height="9" fill="#F5F0E8"/>
  <rect x="180" y="120" width="9" height="9" fill="#F5F0E8"/>
  <rect x="210" y="120" width="9" height="9" fill="#F5F0E8"/>
  <rect x="230" y="120" width="9" height="9" fill="#F5F0E8"/>
  <rect x="250" y="120" width="9" height="9" fill="#F5F0E8"/>
  <rect x="280" y="120" width="9" height="9" fill="#F5F0E8"/>
  <rect x="300" y="120" width="9" height="9" fill="#F5F0E8"/>
  <rect x="150" y="130" width="9" height="9" fill="#F5F0E8"/>
  <rect x="170" y="130" width="9" height="9" fill="#F5F0E8"/>
  <rect x="200" y="130" width="9" height="9" fill="#F5F0E8"/>
  <rect x="220" y="130" width="9" height="9" fill="#F5F0E8"/>
  <rect x="240" y="130" width="9" height="9" fill="#F5F0E8"/>
  <rect x="260" y="130" width="9" height="9" fill="#F5F0E8"/>
  <rect x="290" y="130" width="9" height="9" fill="#F5F0E8"/>
  <rect x="310" y="130" width="9" height="9" fill="#F5F0E8"/>
  <rect x="140" y="140" width="9" height="9" fill="#F5F0E8"/>
  <rect x="160" y="140" width="9" height="9" fill="#F5F0E8"/>
  <rect x="190" y="140" width="9" height="9" fill="#F5F0E8"/>
  <rect x="210" y="140" width="9" height="9" fill="#F5F0E8"/>
  <rect x="250" y="140" width="9" height="9" fill="#F5F0E8"/>
  <rect x="270" y="140" width="9" height="9" fill="#F5F0E8"/>
  <rect x="300" y="140" width="9" height="9" fill="#F5F0E8"/>
  <rect x="320" y="140" width="9" height="9" fill="#F5F0E8"/>
  <rect x="130" y="150" width="9" height="9" fill="#F5F0E8"/>
  <rect x="150" y="150" width="9" height="9" fill="#F5F0E8"/>
  <rect x="160" y="150" width="9" height="9" fill="#F5F0E8"/>
  <rect x="180" y="150" width="9" height="9" fill="#F5F0E8"/>
  <rect x="200" y="150" width="9" height="9" fill="#F5F0E8"/>
  <rect x="230" y="150" width="9" height="9" fill="#F5F0E8"/>
  <rect x="260" y="150" width="9" height="9" fill="#F5F0E8"/>
  <rect x="280" y="150" width="9" height="9" fill="#F5F0E8"/>
  <rect x="300" y="150" width="9" height="9" fill="#F5F0E8"/>
  <rect x="310" y="150" width="9" height="9" fill="#F5F0E8"/>
  <rect x="330" y="150" width="9" height="9" fill="#F5F0E8"/>
  <rect x="120" y="160" width="9" height="9" fill="#F5F0E8"/>
  <rect x="140" y="160" width="9" height="9" fill="#F5F0E8"/>
  <rect x="170" y="160" width="9" height="9" fill="#F5F0E8"/>
  <rect x="190" y="160" width="9" height="9" fill="#F5F0E8"/>
  <rect x="220" y="160" width="9" height="9" fill="#F5F0E8"/>
  <rect x="240" y="160" width="9" height="9" fill="#F5F0E8"/>
  <rect x="270" y="160" width="9" height="9" fill="#F5F0E8"/>
  <rect x="290" y="160" width="9" height="9" fill="#F5F0E8"/>
  <rect x="320" y="160" width="9" height="9" fill="#F5F0E8"/>
  <rect x="340" y="160" width="9" height="9" fill="#F5F0E8"/>
  <rect x="110" y="170" width="9" height="9" fill="#F5F0E8"/>
  <rect x="130" y="170" width="9" height="9" fill="#F5F0E8"/>
  <rect x="160" y="170" width="9" height="9" fill="#F5F0E8"/>
  <rect x="180" y="170" width="9" height="9" fill="#F5F0E8"/>
  <rect x="210" y="170" width="9" height="9" fill="#F5F0E8"/>
  <rect x="230" y="170" width="9" height="9" fill="#F5F0E8"/>
  <rect x="250" y="170" width="9" height="9" fill="#F5F0E8"/>
  <rect x="280" y="170" width="9" height="9" fill="#F5F0E8"/>
  <rect x="300" y="170" width="9" height="9" fill="#F5F0E8"/>
  <rect x="330" y="170" width="9" height="9" fill="#F5F0E8"/>
  <rect x="350" y="170" width="9" height="9" fill="#F5F0E8"/>
  <rect x="100" y="180" width="9" height="9" fill="#F5F0E8"/>
  <rect x="120" y="180" width="9" height="9" fill="#F5F0E8"/>
  <rect x="150" y="180" width="9" height="9" fill="#F5F0E8"/>
  <rect x="170" y="180" width="9" height="9" fill="#F5F0E8"/>
  <rect x="200" y="180" width="9" height="9" fill="#F5F0E8"/>
  <rect x="220" y="180" width="9" height="9" fill="#F5F0E8"/>
  <rect x="240" y="180" width="9" height="9" fill="#F5F0E8"/>
  <rect x="260" y="180" width="9" height="9" fill="#F5F0E8"/>
  <rect x="290" y="180" width="9" height="9" fill="#F5F0E8"/>
  <rect x="310" y="180" width="9" height="9" fill="#F5F0E8"/>
  <rect x="340" y="180" width="9" height="9" fill="#F5F0E8"/>
  <rect x="360" y="180" width="9" height="9" fill="#F5F0E8"/>
  <rect x="90" y="190" width="9" height="9" fill="#F5F0E8"/>
  <rect x="110" y="190" width="9" height="9" fill="#F5F0E8"/>
  <rect x="140" y="190" width="9" height="9" fill="#F5F0E8"/>
  <rect x="160" y="190" width="9" height="9" fill="#F5F0E8"/>
  <rect x="190" y="190" width="9" height="9" fill="#F5F0E8"/>
  <rect x="210" y="190" width="9" height="9" fill="#F5F0E8"/>
  <rect x="250" y="190" width="9" height="9" fill="#F5F0E8"/>
  <rect x="270" y="190" width="9" height="9" fill="#F5F0E8"/>
  <rect x="300" y="190" width="9" height="9" fill="#F5F0E8"/>
  <rect x="320" y="190" width="9" height="9" fill="#F5F0E8"/>
  <rect x="350" y="190" width="9" height="9" fill="#F5F0E8"/>
  <rect x="370" y="190" width="9" height="9" fill="#F5F0E8"/>
  <rect x="80" y="200" width="9" height="9" fill="#F5F0E8"/>
  <rect x="100" y="200" width="9" height="9" fill="#F5F0E8"/>
  <rect x="130" y="200" width="9" height="9" fill="#F5F0E8"/>
  <rect x="150" y="200" width="9" height="9" fill="#F5F0E8"/>
  <rect x="180" y="200" width="9" height="9" fill="#F5F0E8"/>
  <rect x="200" y="200" width="9" height="9" fill="#F5F0E8"/>
  <rect x="230" y="200" width="9" height="9" fill="#F5F0E8"/>
  <rect x="260" y="200" width="9" height="9" fill="#F5F0E8"/>
  <rect x="280" y="200" width="9" height="9" fill="#F5F0E8"/>
  <rect x="310" y="200" width="9" height="9" fill="#F5F0E8"/>
  <rect x="330" y="200" width="9" height="9" fill="#F5F0E8"/>
  <rect x="360" y="200" width="9" height="9" fill="#F5F0E8"/>
  <rect x="380" y="200" width="9" height="9" fill="#F5F0E8"/>
  <rect x="70" y="210" width="9" height="9" fill="#F5F0E8"/>
  <rect x="90" y="210" width="9" height="9" fill="#F5F0E8"/>
  <rect x="120" y="210" width="9" height="9" fill="#F5F0E8"/>
  <rect x="140" y="210" width="9" height="9" fill="#F5F0E8"/>
  <rect x="170" y="210" width="9" height="9" fill="#F5F0E8"/>
  <rect x="190" y="210" width="9" height="9" fill="#F5F0E8"/>
  <rect x="220" y="210" width="9" height="9" fill="#F5F0E8"/>
  <rect x="230" y="210" width="9" height="9" fill="#F5F0E8"/>
  <rect x="240" y="210" width="9" height="9" fill="#F5F0E8"/>
  <rect x="270" y="210" width="9" height="9" fill="#F5F0E8"/>
  <rect x="290" y="210" width="9" height="9" fill="#F5F0E8"/>
  <rect x="320" y="210" width="9" height="9" fill="#F5F0E8"/>
  <rect x="340" y="210" width="9" height="9" fill="#F5F0E8"/>
  <rect x="370" y="210" width="9" height="9" fill="#F5F0E8"/>
  <rect x="390" y="210" width="9" height="9" fill="#F5F0E8"/>
  <rect x="60" y="220" width="9" height="9" fill="#F5F0E8"/>
  <rect x="80" y="220" width="9" height="9" fill="#F5F0E8"/>
  <rect x="110" y="220" width="9" height="9" fill="#F5F0E8"/>
  <rect x="130" y="220" width="9" height="9" fill="#F5F0E8"/>
  <rect x="160" y="220" width="9" height="9" fill="#F5F0E8"/>
  <rect x="180" y="220" width="9" height="9" fill="#F5F0E8"/>
  <rect x="210" y="220" width="9" height="9" fill="#F5F0E8"/>
  <rect x="220" y="220" width="9" height="9" fill="#F5F0E8"/>
  <rect x="230" y="220" width="9" height="9" fill="#F5F0E8"/>
  <rect x="240" y="220" width="9" height="9" fill="#F5F0E8"/>
  <rect x="250" y="220" width="9" height="9" fill="#F5F0E8"/>
  <rect x="280" y="220" width="9" height="9" fill="#F5F0E8"/>
  <rect x="300" y="220" width="9" height="9" fill="#F5F0E8"/>
  <rect x="330" y="220" width="9" height="9" fill="#F5F0E8"/>
  <rect x="350" y="220" width="9" height="9" fill="#F5F0E8"/>
  <rect x="380" y="220" width="9" height="9" fill="#F5F0E8"/>
  <rect x="400" y="220" width="9" height="9" fill="#F5F0E8"/>
  <rect x="70" y="230" width="9" height="9" fill="#F5F0E8"/>
  <rect x="90" y="230" width="9" height="9" fill="#F5F0E8"/>
  <rect x="120" y="230" width="9" height="9" fill="#F5F0E8"/>
  <rect x="140" y="230" width="9" height="9" fill="#F5F0E8"/>
  <rect x="170" y="230" width="9" height="9" fill="#F5F0E8"/>
  <rect x="190" y="230" width="9" height="9" fill="#F5F0E8"/>
  <rect x="220" y="230" width="9" height="9" fill="#F5F0E8"/>
  <rect x="230" y="230" width="9" height="9" fill="#F5F0E8"/>
  <rect x="240" y="230" width="9" height="9" fill="#F5F0E8"/>
  <rect x="270" y="230" width="9" height="9" fill="#F5F0E8"/>
  <rect x="290" y="230" width="9" height="9" fill="#F5F0E8"/>
  <rect x="320" y="230" width="9" height="9" fill="#F5F0E8"/>
  <rect x="340" y="230" width="9" height="9" fill="#F5F0E8"/>
  <rect x="370" y="230" width="9" height="9" fill="#F5F0E8"/>
  <rect x="390" y="230" width="9" height="9" fill="#F5F0E8"/>
  <rect x="80" y="240" width="9" height="9" fill="#F5F0E8"/>
  <rect x="100" y="240" width="9" height="9" fill="#F5F0E8"/>
  <rect x="130" y="240" width="9" height="9" fill="#F5F0E8"/>
  <rect x="150" y="240" width="9" height="9" fill="#F5F0E8"/>
  <rect x="180" y="240" width="9" height="9" fill="#F5F0E8"/>
  <rect x="200" y="240" width="9" height="9" fill="#F5F0E8"/>
  <rect x="230" y="240" width="9" height="9" fill="#F5F0E8"/>
  <rect x="260" y="240" width="9" height="9" fill="#F5F0E8"/>
  <rect x="280" y="240" width="9" height="9" fill="#F5F0E8"/>
  <rect x="310" y="240" width="9" height="9" fill="#F5F0E8"/>
  <rect x="330" y="240" width="9" height="9" fill="#F5F0E8"/>
  <rect x="360" y="240" width="9" height="9" fill="#F5F0E8"/>
  <rect x="380" y="240" width="9" height="9" fill="#F5F0E8"/>
  <rect x="90" y="250" width="9" height="9" fill="#F5F0E8"/>
  <rect x="110" y="250" width="9" height="9" fill="#F5F0E8"/>
  <rect x="140" y="250" width="9" height="9" fill="#F5F0E8"/>
  <rect x="160" y="250" width="9" height="9" fill="#F5F0E8"/>
  <rect x="190" y="250" width="9" height="9" fill="#F5F0E8"/>
  <rect x="210" y="250" width="9" height="9" fill="#F5F0E8"/>
  <rect x="250" y="250" width="9" height="9" fill="#F5F0E8"/>
  <rect x="270" y="250" width="9" height="9" fill="#F5F0E8"/>
  <rect x="300" y="250" width="9" height="9" fill="#F5F0E8"/>
  <rect x="320" y="250" width="9" height="9" fill="#F5F0E8"/>
  <rect x="350" y="250" width="9" height="9" fill="#F5F0E8"/>
  <rect x="370" y="250" width="9" height="9" fill="#F5F0E8"/>
  <rect x="100" y="260" width="9" height="9" fill="#F5F0E8"/>
  <rect x="120" y="260" width="9" height="9" fill="#F5F0E8"/>
  <rect x="150" y="260" width="9" height="9" fill="#F5F0E8"/>
  <rect x="170" y="260" width="9" height="9" fill="#F5F0E8"/>
  <rect x="200" y="260" width="9" height="9" fill="#F5F0E8"/>
  <rect x="220" y="260" width="9" height="9" fill="#F5F0E8"/>
  <rect x="240" y="260" width="9" height="9" fill="#F5F0E8"/>
  <rect x="260" y="260" width="9" height="9" fill="#F5F0E8"/>
  <rect x="290" y="260" width="9" height="9" fill="#F5F0E8"/>
  <rect x="310" y="260" width="9" height="9" fill="#F5F0E8"/>
  <rect x="340" y="260" width="9" height="9" fill="#F5F0E8"/>
  <rect x="360" y="260" width="9" height="9" fill="#F5F0E8"/>
  <rect x="110" y="270" width="9" height="9" fill="#F5F0E8"/>
  <rect x="130" y="270" width="9" height="9" fill="#F5F0E8"/>
  <rect x="160" y="270" width="9" height="9" fill="#F5F0E8"/>
  <rect x="180" y="270" width="9" height="9" fill="#F5F0E8"/>
  <rect x="210" y="270" width="9" height="9" fill="#F5F0E8"/>
  <rect x="230" y="270" width="9" height="9" fill="#F5F0E8"/>
  <rect x="250" y="270" width="9" height="9" fill="#F5F0E8"/>
  <rect x="280" y="270" width="9" height="9" fill="#F5F0E8"/>
  <rect x="300" y="270" width="9" height="9" fill="#F5F0E8"/>
  <rect x="330" y="270" width="9" height="9" fill="#F5F0E8"/>
  <rect x="350" y="270" width="9" height="9" fill="#F5F0E8"/>
  <rect x="120" y="280" width="9" height="9" fill="#F5F0E8"/>
  <rect x="140" y="280" width="9" height="9" fill="#F5F0E8"/>
  <rect x="170" y="280" width="9" height="9" fill="#F5F0E8"/>
  <rect x="190" y="280" width="9" height="9" fill="#F5F0E8"/>
  <rect x="220" y="280" width="9" height="9" fill="#F5F0E8"/>
  <rect x="240" y="280" width="9" height="9" fill="#F5F0E8"/>
  <rect x="270" y="280" width="9" height="9" fill="#F5F0E8"/>
  <rect x="290" y="280" width="9" height="9" fill="#F5F0E8"/>
  <rect x="320" y="280" width="9" height="9" fill="#F5F0E8"/>
  <rect x="340" y="280" width="9" height="9" fill="#F5F0E8"/>
  <rect x="130" y="290" width="9" height="9" fill="#F5F0E8"/>
  <rect x="150" y="290" width="9" height="9" fill="#F5F0E8"/>
  <rect x="160" y="290" width="9" height="9" fill="#F5F0E8"/>
  <rect x="180" y="290" width="9" height="9" fill="#F5F0E8"/>
  <rect x="200" y="290" width="9" height="9" fill="#F5F0E8"/>
  <rect x="230" y="290" width="9" height="9" fill="#F5F0E8"/>
  <rect x="260" y="290" width="9" height="9" fill="#F5F0E8"/>
  <rect x="280" y="290" width="9" height="9" fill="#F5F0E8"/>
  <rect x="300" y="290" width="9" height="9" fill="#F5F0E8"/>
  <rect x="310" y="290" width="9" height="9" fill="#F5F0E8"/>
  <rect x="330" y="290" width="9" height="9" fill="#F5F0E8"/>
  <rect x="140" y="300" width="9" height="9" fill="#F5F0E8"/>
  <rect x="160" y="300" width="9" height="9" fill="#F5F0E8"/>
  <rect x="190" y="300" width="9" height="9" fill="#F5F0E8"/>
  <rect x="210" y="300" width="9" height="9" fill="#F5F0E8"/>
  <rect x="250" y="300" width="9" height="9" fill="#F5F0E8"/>
  <rect x="270" y="300" width="9" height="9" fill="#F5F0E8"/>
  <rect x="300" y="300" width="9" height="9" fill="#F5F0E8"/>
  <rect x="320" y="300" width="9" height="9" fill="#F5F0E8"/>
  <rect x="150" y="310" width="9" height="9" fill="#F5F0E8"/>
  <rect x="170" y="310" width="9" height="9" fill="#F5F0E8"/>
  <rect x="200" y="310" width="9" height="9" fill="#F5F0E8"/>
  <rect x="220" y="310" width="9" height="9" fill="#F5F0E8"/>
  <rect x="240" y="310" width="9" height="9" fill="#F5F0E8"/>
  <rect x="260" y="310" width="9" height="9" fill="#F5F0E8"/>
  <rect x="290" y="310" width="9" height="9" fill="#F5F0E8"/>
  <rect x="310" y="310" width="9" height="9" fill="#F5F0E8"/>
  <rect x="160" y="320" width="9" height="9" fill="#F5F0E8"/>
  <rect x="180" y="320" width="9" height="9" fill="#F5F0E8"/>
  <rect x="210" y="320" width="9" height="9" fill="#F5F0E8"/>
  <rect x="230" y="320" width="9" height="9" fill="#F5F0E8"/>
  <rect x="250" y="320" width="9" height="9" fill="#F5F0E8"/>
  <rect x="280" y="320" width="9" height="9" fill="#F5F0E8"/>
  <rect x="300" y="320" width="9" height="9" fill="#F5F0E8"/>
  <rect x="170" y="330" width="9" height="9" fill="#F5F0E8"/>
  <rect x="190" y="330" width="9" height="9" fill="#F5F0E8"/>
  <rect x="220" y="330" width="9" height="9" fill="#F5F0E8"/>
  <rect x="240" y="330" width="9" height="9" fill="#F5F0E8"/>
  <rect x="270" y="330" width="9" height="9" fill="#F5F0E8"/>
  <rect x="290" y="330" width="9" height="9" fill="#F5F0E8"/>
  <rect x="180" y="340" width="9" height="9" fill="#F5F0E8"/>
  <rect x="200" y="340" width="9" height="9" fill="#F5F0E8"/>
  <rect x="230" y="340" width="9" height="9" fill="#F5F0E8"/>
  <rect x="260" y="340" width="9" height="9" fill="#F5F0E8"/>
  <rect x="280" y="340" width="9" height="9" fill="#F5F0E8"/>
  <rect x="190" y="350" width="9" height="9" fill="#F5F0E8"/>
  <rect x="210" y="350" width="9" height="9" fill="#F5F0E8"/>
  <rect x="250" y="350" width="9" height="9" fill="#F5F0E8"/>
  <rect x="270" y="350" width="9" height="9" fill="#F5F0E8"/>
  <rect x="200" y="360" width="9" height="9" fill="#F5F0E8"/>
  <rect x="220" y="360" width="9" height="9" fill="#F5F0E8"/>
  <rect x="240" y="360" width="9" height="9" fill="#F5F0E8"/>
  <rect x="260" y="360" width="9" height="9" fill="#F5F0E8"/>
  <rect x="210" y="370" width="9" height="9" fill="#F5F0E8"/>
  <rect x="230" y="370" width="9" height="9" fill="#F5F0E8"/>
  <rect x="250" y="370" width="9" height="9" fill="#F5F0E8"/>
  <rect x="220" y="380" width="9" height="9" fill="#F5F0E8"/>
  <rect x="240" y="380" width="9" height="9" fill="#F5F0E8"/>
  <rect x="230" y="390" width="9" height="9" fill="#F5F0E8"/>

  <!-- Title -->
  <text x="235" y="450" text-anchor="middle"
    font-family="Georgia, 'Times New Roman', serif" font-weight="700"
    font-size="44" fill="#F5F0E8" letter-spacing="8">WOMEN UP!</text>

  <!-- Subtitle -->
  <text x="235" y="484" text-anchor="middle"
    font-family="Georgia, 'Times New Roman', serif" font-weight="400"
    font-size="14" fill="#F5F0E8" letter-spacing="5">INICJATYWA SPOŁECZNA</text>

  <!-- Decorative divider -->
  <line x1="125" y1="504" x2="215" y2="504" stroke="#F5F0E8" stroke-width="1"/>
  <line x1="255" y1="504" x2="345" y2="504" stroke="#F5F0E8" stroke-width="1"/>
  <polygon points="235,498 241,504 235,510 229,504" fill="#F5F0E8"/>

  <!-- Tagline -->
  <text x="235" y="532" text-anchor="middle"
    font-family="Georgia, 'Times New Roman', serif" font-weight="400"
    font-size="11" fill="#F5F0E8" letter-spacing="3.5">WALECZNE · SPRAWCZE · NIEZALEŻNE</text>
</svg>